<?xml version="1.0" encoding="utf-8"?>
<!-- Generator: Adobe Illustrator 15.0.2, SVG Export Plug-In . SVG Version: 6.00 Build 0)  -->
<!DOCTYPE svg PUBLIC "-//W3C//DTD SVG 1.1//EN" "http://www.w3.org/Graphics/SVG/1.1/DTD/svg11.dtd">
<svg version="1.1" id="Layer_1" xmlns="http://www.w3.org/2000/svg" xmlns:xlink="http://www.w3.org/1999/xlink" x="0px" y="0px"
	 width="275.006px" height="29.41px" viewBox="14.345 -160.574 275.006 29.41"
	 enable-background="new 14.345 -160.574 275.006 29.41" xml:space="preserve">
<g>
	<g>
		<path fill="#95CBEE" d="M21.654-153.987c-0.123-0.025-0.222,0.004-0.248,0.109c-0.036,0.125,0.095,0.338,0.267,0.295
			c0.231-0.061,0.24-0.225,0.259-0.43C21.934-154.076,21.747-153.969,21.654-153.987z"/>
		<path fill="#95CBEE" d="M34.047-151.406v-0.016c0,0.002,0,0.002-0.002,0.004C34.043-151.413,34.045-151.41,34.047-151.406z"/>
		<path fill="#95CBEE" d="M38.812-160.574H27.167H27.16H15.516c0,4.557-1.171,8.385-1.171,12.428c0,3.797,0.548,6.955,3.405,10.562
			c3.4,4.298,9.301,6.379,9.41,6.418v0.002l0.004-0.002l0.003,0.002v-0.002c0.11-0.039,6.009-2.12,9.411-6.418
			c2.855-3.607,3.406-6.766,3.406-10.562C39.984-152.19,38.812-156.018,38.812-160.574z M17.451-153.944
			c0.184-0.065,0.422,0.023,0.553,0.171c0.127,0.142,0.119,0.462,0.227,0.427c0,0,0.236,0.088-0.062-0.449
			c-0.305-0.548-0.717-0.149-0.732-0.457c-0.006-0.076,0.02-0.152,0.087-0.162c0.385-0.047,0.728,0.162,0.978,0.426
			c0.346,0.355,0.453,0.899,0.301,1.357c-0.043,0.131,0.01,0.564-0.015,0.723c-0.085,0.528,0.38,1.031,0.314,1.568
			c-0.018,0.191,0.156,0.404,0.343,0.489c0.271,0.122,0.417,0.122,0.92,0.118c0.355-0.001,0.887,0.061,1.212,0.218
			c0.29,0.14,0,0,0.296,0.073c0,0-0.273,1.614-0.083,2.416c-0.398-0.09-0.97-0.455-1.58-0.688c-0.283-0.108-1.116-0.488-1.091-0.491
			c0.084-0.012-0.299-0.278-0.672-0.383c-0.269-0.077-0.565-1.352-0.538-1.466c0.048-0.186-0.1-0.377-0.12-0.578
			c-0.074-0.596,0.221-1.201-0.035-1.768c-0.05-0.109-0.229-0.152-0.312-0.262c-0.107-0.138-0.058-0.318-0.037-0.479
			c0.01-0.078,0.116-0.084,0.18-0.052c0.165,0.065,0.252,0.167,0.287,0.37c0.012,0.084,0.293-0.059,0.029-0.383
			c-0.146-0.185-0.412-0.059-0.509-0.227C17.322-153.551,17.287-153.885,17.451-153.944z M28.269-140.401
			c-0.269,0.077-0.485,0.166-0.739,0.333c-0.218,0.144-0.752,0.776-0.902,0.735c-0.674-0.174-1.297-0.1-1.658,0.039
			c-0.287,0.111-0.447,0.473-0.743,0.47c-0.337-0.003-0.337-0.181-0.71-0.179c-0.457,0.041-0.336,0.207-0.562,0.267
			c-0.152,0.038-0.344,0.019-0.498-0.046c-0.052-0.018-0.121-0.06-0.1-0.144c0.075-0.285,0.166-0.484,0.505-0.578
			c0.093-0.028,0.018-0.165-0.088-0.182c-0.178-0.023-0.332,0.06-0.429,0.189c-0.156,0.202-0.139,0.373-0.231,0.593
			c-0.107,0.244-0.424,0.113-0.649,0.107c-0.092-0.002-0.169-0.134-0.156-0.252c0.014-0.18,0.064-0.267,0.18-0.395
			c0.07-0.078,0.146-0.131,0.293-0.195c0.08-0.035,0.163-0.1,0.129-0.182c-0.033-0.081-0.207-0.088-0.297-0.055
			c-0.404,0.164-0.451,0.447-0.587,0.853c-0.08,0.239-0.434,0.186-0.647,0.096c-0.123-0.661,0.68-1.124,1.148-1.286
			c0.48-0.119,2.406-0.154,3.642-0.182c0.097-0.002,0.398-0.055,0.48-0.115c0.304-0.246,0.649-0.572,0.996-0.752
			c0.409-0.213,0.383-0.182,0.917-0.512c0.072-0.047,0.376-0.233,0.385-0.199c0.134,0.441,0.614,0.931,1.137,1.171
			C29.199-140.747,28.422-140.446,28.269-140.401z M35.918-151.674c-0.128,0.334-0.5,0.505-0.641,0.811
			c-0.238,0.518,0.244,0.968,0.58,1.373c0.018,0.022-0.006,0.055-0.027,0.055c-0.623-0.017-1.221-0.521-1.288-1.13
			c-0.017-0.127-0.179-0.177-0.261-0.079c-0.121,0.139-0.236,0.28-0.211,0.48c0.004,0.018-0.035,0.044-0.058,0.023
			c-0.244-0.246-0.269-0.647-0.205-0.977c0.01-0.052,0.063-0.125,0.1-0.189c0.022-0.035-0.046-0.071-0.024-0.118
			c-0.243-0.03-0.428,0.124-0.579,0.3c-0.018,0.018-0.079,0.021-0.087-0.027c-0.109-0.695,0.422-1.062,0.978-1.374l0,0l0,0
			c0.224-0.126,0.505-0.27,0.696-0.396c0.09-0.787,0.019-1.331,0.045-2.121c0-0.019-2.6-0.025-3.61-0.025
			c-0.024,0.006-0.086,0.109-0.086,0.141c-0.03,1.358-0.048,2.507-0.005,3.869c0.656,0.458,1.273,0.937,1.873,1.484
			c0.82,0.748,1.684,1.348,2.487,2.107c0.206,0.197,0.175,0.469,0.171,0.727c-0.01,0.463,0,0.918-0.004,1.381l0.008,0.033
			c0.025,0.165,0.02,0.959-0.01,1.07c-0.015,0.052-0.086,0.076-0.123,0.08c-0.471,0.025-0.922,0.051-1.547,0.043
			c-0.215,0-0.647,0.02-0.764,0.084c-0.715,0.389-0.346,1.021,0.205,0.965c0.382-0.039,0.663-0.048,1.042-0.123
			c0.405-0.078,0.63-0.075,0.899-0.053c0.163,0.011,0.281,3.187,0.298,3.645c0,0-0.025,0.711-0.483,0.73
			c-0.553,0.02-0.301,0.096-0.859,0.131c-0.26,0.016-0.562,0.037-0.743-0.158c-0.057-0.055-0.087-0.165-0.159-0.222
			c-0.115-0.088-0.301,0-0.352,0.173c-0.034,0.123-0.205,0.366-0.334,0.369c-0.271,0.012-0.742,0.113-0.623-0.16
			c0.131-0.311,0.016-0.504-0.353,0.037c-0.126,0.186-0.503,0.197-0.679,0.115c-0.162-0.074-0.057-0.4,0.062-0.515
			c0.298-0.287-0.245-0.498-0.546,0.438c-0.039,0.118-0.533,0.094-0.562-0.071c-0.101-0.608,0.507-1.118,1.102-1.308
			c0.326-0.105,0.668-0.176,0.987-0.182c0.752-0.006,1.16,0.078,1.881,0.318c0.111,0.035,0.339,0.027,0.359-0.063
			c0.019-0.092-0.004-1.487-0.127-1.637c-0.176-0.044-0.441,0.036-0.768,0.14c-0.588,0.186-1.156,0.353-1.691,0.459
			c-1.226,0.246-1.499,0.146-1.918,0.092c-0.42-0.053-0.727-0.21-1.074-0.461c-0.258-0.188-0.48-0.545-0.562-0.875
			c-0.178-0.719,0.233-1.45,0.802-1.871l0.032-0.031c0.139-0.096,0.301-0.15,0.44-0.252c0.016-0.012,0.016-0.067,0.001-0.075
			c-0.757,0.038-1.637,1.034-1.716,1.554c-0.458,0.053-2.202-0.615-2.782-0.721c-0.136-0.025-0.758-0.27-0.643-0.404
			c0.04-0.047,0.588-0.338,0.826-0.977c0.105-0.281,0.1-0.525,0.16-0.838c0.059-0.297,0.162-0.488,0.361-0.729
			c0.016-0.027,0.056-0.09,0.032-0.098c-0.164-0.034-0.353,0.244-0.421,0.355c-0.289,0.473-0.188,0.678-0.416,1.178
			c-0.177,0.394-0.958,1.078-1.33,1.072c-0.111-0.006-1.266-0.168-1.414-0.232c-0.156-0.072-0.824-0.299-0.917-0.314
			c-0.228-0.047-1.142,0.021-1.358,0.358c-0.054,0.083,0.084,0.194,0.039,0.273c-0.175,0.301-0.664,0.132-0.973,0.095
			c-0.195-0.023-0.204-0.303-0.11-0.447c0.161-0.244,0.254-0.315,0.562-0.402c0.058-0.014,0.262-0.087,0.236-0.178
			c-0.064-0.217-0.35-0.084-0.407-0.033c-0.335,0.301-0.465,0.541-0.815,0.82c-0.09,0.071-0.369,0.074-0.388-0.068
			c-0.042-0.301,0.195-0.59,0.454-0.773c0.035-0.025,0.137,0.03,0.211,0.008c0.023-0.008,0.057-0.033,0.059-0.062
			c0.015-0.126-0.133-0.224-0.25-0.148c-0.391,0.252-0.487,0.694-0.82,0.95c-0.107,0.08-0.404,0.084-0.425-0.096
			c-0.057-0.494,0.343-0.973,0.811-1.141c0.405-0.147,0.831-0.032,1.296-0.203c0.404-0.018,0.832,0.069,1.201-0.068
			c0.188-0.063,0.373-0.172,0.553-0.303c0.419-0.305,1.725-0.474,2.324,0.147c0.305-0.409-0.807-0.546-1.301-0.754
			c-0.34-0.142-0.212-1.82-0.092-2.56c0.118-0.74,0.791-1.374,0.438-2.325c-0.238-0.644-0.85,0.554-1.035,0.331
			c-0.062-0.076-0.43-0.318-0.324-0.412c0.373-0.351,1.02-0.482,1.156-1.012c0.072-0.277-0.308-0.482-0.654-0.312
			c-0.408,0.198-0.658,0.625-1.104,0.684c-0.097,0.016-0.193-0.166-0.255-0.285c-0.071-0.149,0.091-0.23,0.155-0.357
			c0.016-0.037,0.003-0.081,0.003-0.126c-0.159,0.021-0.169,0.146-0.233,0.294c-0.02,0.104-0.191-0.11-0.191-0.133
			c-0.004-0.148,0.109-0.263,0.203-0.377c0.117-0.145,0.254-0.26,0.41-0.377c0.402-0.291,0.578-0.82,0.84-1.218
			c0.008-0.013-0.008-0.052,0.096-0.047c0.674,0.026,1.33,0.263,1.432,0.188c0.309-0.234,0.462-0.443,0.579-0.834
			c0.03-0.096,0.184-0.168,0.276-0.145c0.179,0.049,0.264,0.336,0.246,0.503c-0.035,0.296-0.24,0.559-0.513,0.712
			c0.494,0.344,1.194,1.049,1.484,1.98c0.36,1.162,0.086,1.916,0.086,1.916c0.167,0.037,0.211-0.275,0.274-0.754
			c0.232-1.688-0.859-3.031-1.205-3.217c0.23-0.287,0.255-0.647,0.156-0.951c-0.1-0.305-0.414-0.572-0.763-0.458
			c-0.134,0.044-0.26,0.186-0.352,0.444c-0.099,0.277-0.312,0.471-0.413,0.453c-0.338-0.059-0.748-0.094-1.275-0.113
			c-0.256-0.275-0.189-0.83-0.152-0.965c0.035-0.137,0.231-0.21,0.556-0.127c0.126,0.033,0.509-0.165,0.771,0.008
			c0.217,0.047,0.244,0.06,0.504-0.018c0.471-0.121,0.654-0.049,0.793-0.022c0.296,0.057,0.805,0.216,1.188,0.458
			c0.193,0.273,0.01,0.184,0.062,0.345c0.045,0.132,0.507,0.122,0.632,0.149c0.592,0.127,0.684,0.176,0.846,0.324
			c0.019,0.019,0.084,0.146-0.034,0.186c-0.15,0.051-0.224,0.035-0.306,0.173c-0.043,0.065,0.035,0.114,0.09,0.145
			c0.295,0.146,0.523,0.345,0.713,0.597c0.057,0.074,0.197,0.246,0.075,0.318c-0.071,0.039-0.153-0.149-0.253-0.047
			c-0.18,0.188,0.253,0.364,0.437,1.5c0.002,0.007-0.024,0.166-0.14,0.078c-0.104-0.078-0.132-0.206-0.258-0.189
			c-0.135,0.01-0.079,0.171-0.043,0.295c0.112,0.359,0.221,1.28,0.081,1.295c-0.148,0.006-0.144-0.128-0.272-0.167
			c-0.104-0.032-0.13,0.082-0.15,0.165c-0.045,0.197,0.15,0.537,0.088,1.146c-0.035,0.353-0.215,0.141-0.311,0.148
			c-0.278,0.027-0.006,0.44-0.006,0.44c1.139,0.946,1.503,1.536,3.018,2.685c0.398,0.301,0.82,0.018,1.848,0.271
			c1.674,0.411,1.757,0.566,2.781,0.638c0.404,0.028,0.406-0.312,0.406-0.312c0-0.291,0.033-0.869-0.012-1.021
			c-0.045-0.157-0.107-0.31-0.226-0.425c-1.23-1.227-2.657-2.121-3.978-3.195c0.074-1.562-0.126-2.865-0.02-4.434
			c0.025-0.357-0.017-0.73,0.141-1.072c1.274-0.065,2.473,0,3.864,0.008c0.409,0.002,0.788-0.079,1.173,0.119
			c0.031,0.898-0.014,1.795,0.014,2.692c0,0.122,0.316,0.116,0.391,0.281C36.126-152.369,36.049-152.01,35.918-151.674z"/>
	</g>
	<g>
		<path fill="#95CBEE" d="M54.469-147.685h0.09c0.612-0.667,3.241-3.35,3.764-3.962c0.504-0.594,0.9-1.044,0.9-1.35
			c0-0.198-0.072-0.324-0.252-0.36c-0.162-0.036-0.234-0.072-0.234-0.181c0-0.126,0.09-0.161,0.288-0.161
			c0.378,0,1.368,0.054,1.854,0.054c0.559,0,1.549-0.054,2.106-0.054c0.181,0,0.306,0.035,0.306,0.161
			c0,0.127-0.09,0.162-0.27,0.162c-0.252,0-0.702,0.072-1.045,0.198c-0.558,0.216-1.17,0.595-1.943,1.351
			c-0.559,0.54-3.277,3.241-3.89,3.89c0.647,0.846,4.177,4.645,4.88,5.312c0.791,0.756,1.602,1.566,2.574,1.944
			c0.54,0.216,0.9,0.27,1.116,0.27c0.126,0,0.234,0.036,0.234,0.145c0,0.126-0.091,0.18-0.433,0.18h-1.566
			c-0.54,0-0.864,0-1.242-0.036c-0.973-0.09-1.459-0.485-2.232-1.17c-0.793-0.702-4.34-4.861-4.718-5.384l-0.198-0.27h-0.09v1.638
			c0,1.657,0,3.079,0.055,3.854c0.035,0.504,0.197,0.9,0.647,0.973c0.253,0.036,0.648,0.071,0.882,0.071
			c0.145,0,0.234,0.055,0.234,0.145c0,0.126-0.144,0.18-0.342,0.18c-1.008,0-2.143-0.054-2.593-0.054
			c-0.414,0-1.548,0.054-2.269,0.054c-0.234,0-0.36-0.054-0.36-0.18c0-0.09,0.072-0.145,0.288-0.145c0.27,0,0.486-0.035,0.648-0.071
			c0.359-0.072,0.45-0.469,0.521-0.99c0.091-0.757,0.091-2.179,0.091-3.836v-3.169c0-2.736,0-3.24-0.036-3.816
			c-0.036-0.612-0.18-0.9-0.774-1.026c-0.144-0.036-0.45-0.055-0.702-0.055c-0.198,0-0.307-0.035-0.307-0.162
			c0-0.126,0.127-0.161,0.396-0.161c0.955,0,2.089,0.054,2.521,0.054c0.432,0,1.566-0.054,2.178-0.054
			c0.252,0,0.379,0.035,0.379,0.161c0,0.127-0.108,0.162-0.252,0.162c-0.181,0-0.289,0.019-0.505,0.055
			c-0.485,0.09-0.63,0.396-0.666,1.026c-0.036,0.576-0.036,1.08-0.036,3.816V-147.685z"/>
		<path fill="#95CBEE" d="M66.996-144.786c-0.09,0-0.126,0.036-0.162,0.145l-0.973,2.574c-0.18,0.45-0.27,0.883-0.27,1.099
			c0,0.324,0.162,0.558,0.721,0.558h0.27c0.217,0,0.271,0.036,0.271,0.145c0,0.144-0.108,0.18-0.306,0.18
			c-0.576,0-1.352-0.054-1.909-0.054c-0.198,0-1.188,0.054-2.124,0.054c-0.234,0-0.343-0.036-0.343-0.18
			c0-0.108,0.072-0.145,0.216-0.145c0.162,0,0.414-0.018,0.559-0.035c0.828-0.108,1.17-0.721,1.53-1.621l4.52-11.308
			c0.216-0.521,0.323-0.72,0.504-0.72c0.162,0,0.271,0.162,0.45,0.576c0.432,0.99,3.312,8.337,4.465,11.073
			c0.685,1.62,1.207,1.873,1.585,1.963c0.271,0.054,0.54,0.071,0.757,0.071c0.144,0,0.233,0.019,0.233,0.145
			c0,0.144-0.162,0.18-0.828,0.18c-0.648,0-1.963,0-3.403-0.036c-0.324-0.018-0.54-0.018-0.54-0.144
			c0-0.108,0.072-0.145,0.252-0.162c0.126-0.036,0.253-0.198,0.162-0.414l-1.44-3.817c-0.035-0.09-0.09-0.126-0.18-0.126H66.996z
			 M70.67-145.687c0.09,0,0.107-0.054,0.09-0.107l-1.621-4.447c-0.018-0.072-0.035-0.162-0.09-0.162c-0.054,0-0.09,0.09-0.107,0.162
			l-1.657,4.429c-0.018,0.072,0,0.126,0.072,0.126H70.67z"/>
		<path fill="#95CBEE" d="M79.236-148.478c0-2.736,0-3.24-0.035-3.816c-0.037-0.612-0.181-0.9-0.775-1.026
			c-0.144-0.036-0.449-0.055-0.701-0.055c-0.199,0-0.307-0.035-0.307-0.162c0-0.126,0.126-0.161,0.396-0.161
			c0.954,0,2.088,0.054,2.448,0.054c0.882,0,1.585-0.054,2.196-0.054c3.26,0,3.836,1.746,3.836,2.7c0,1.477-0.847,2.359-1.837,3.151
			c1.477,0.504,3.277,1.782,3.277,3.889c0,1.927-1.495,3.926-4.808,3.926c-0.217,0-0.738-0.036-1.26-0.055
			c-0.541-0.036-1.081-0.054-1.352-0.054c-0.197,0-0.594,0-1.025,0.018c-0.414,0-0.883,0.036-1.242,0.036
			c-0.234,0-0.361-0.054-0.361-0.18c0-0.09,0.072-0.145,0.289-0.145c0.27,0,0.486-0.035,0.648-0.071
			c0.359-0.072,0.449-0.469,0.521-0.99c0.09-0.757,0.09-2.179,0.09-3.836V-148.478z M81.397-148.171c0,0.144,0.054,0.18,0.126,0.198
			c0.162,0.036,0.432,0.054,0.846,0.054c0.595,0,0.99-0.072,1.297-0.342c0.468-0.378,0.738-1.026,0.738-1.909
			c0-1.206-0.702-2.791-2.251-2.791c-0.252,0-0.414,0-0.595,0.036c-0.125,0.036-0.161,0.108-0.161,0.307V-148.171z M83.773-146.731
			c-0.377-0.271-0.792-0.396-1.494-0.433c-0.324-0.018-0.504-0.018-0.773-0.018c-0.072,0-0.108,0.036-0.108,0.126v4.268
			c0,1.188,0.054,1.494,0.63,1.729c0.486,0.197,0.9,0.216,1.314,0.216c0.811,0,2.179-0.433,2.179-2.305
			C85.521-144.264,85.143-145.777,83.773-146.731z"/>
		<path fill="#95CBEE" d="M91.962-148.478c0-2.736,0-3.24-0.036-3.816c-0.035-0.612-0.18-0.9-0.773-1.026
			c-0.145-0.036-0.451-0.055-0.703-0.055c-0.197,0-0.306-0.035-0.306-0.162c0-0.126,0.126-0.161,0.396-0.161
			c0.955,0,2.09,0.054,2.449,0.054c0.883,0,1.584-0.054,2.197-0.054c3.259,0,3.835,1.746,3.835,2.7c0,1.477-0.847,2.359-1.837,3.151
			c1.477,0.504,3.277,1.782,3.277,3.889c0,1.927-1.494,3.926-4.808,3.926c-0.216,0-0.738-0.036-1.261-0.055
			c-0.54-0.036-1.08-0.054-1.35-0.054c-0.199,0-0.595,0-1.027,0.018c-0.414,0-0.882,0.036-1.242,0.036
			c-0.234,0-0.359-0.054-0.359-0.18c0-0.09,0.072-0.145,0.287-0.145c0.271,0,0.486-0.035,0.648-0.071
			c0.36-0.072,0.451-0.469,0.522-0.99c0.09-0.757,0.09-2.179,0.09-3.836V-148.478z M94.123-148.171c0,0.144,0.054,0.18,0.126,0.198
			c0.162,0.036,0.433,0.054,0.847,0.054c0.594,0,0.99-0.072,1.296-0.342c0.468-0.378,0.738-1.026,0.738-1.909
			c0-1.206-0.702-2.791-2.251-2.791c-0.252,0-0.414,0-0.594,0.036c-0.127,0.036-0.162,0.108-0.162,0.307V-148.171z M96.5-146.731
			c-0.379-0.271-0.793-0.396-1.495-0.433c-0.323-0.018-0.504-0.018-0.774-0.018c-0.072,0-0.107,0.036-0.107,0.126v4.268
			c0,1.188,0.054,1.494,0.63,1.729c0.486,0.197,0.9,0.216,1.314,0.216c0.81,0,2.179-0.433,2.179-2.305
			C98.246-144.264,97.868-145.777,96.5-146.731z"/>
		<path fill="#95CBEE" d="M105.857-144.786c-0.09,0-0.126,0.036-0.162,0.145l-0.973,2.574c-0.18,0.45-0.27,0.883-0.27,1.099
			c0,0.324,0.162,0.558,0.721,0.558h0.27c0.217,0,0.271,0.036,0.271,0.145c0,0.144-0.108,0.18-0.306,0.18
			c-0.576,0-1.352-0.054-1.909-0.054c-0.198,0-1.188,0.054-2.124,0.054c-0.234,0-0.343-0.036-0.343-0.18
			c0-0.108,0.072-0.145,0.216-0.145c0.162,0,0.414-0.018,0.559-0.035c0.828-0.108,1.17-0.721,1.53-1.621l4.52-11.308
			c0.216-0.521,0.323-0.72,0.504-0.72c0.162,0,0.271,0.162,0.45,0.576c0.432,0.99,3.312,8.337,4.465,11.073
			c0.685,1.62,1.207,1.873,1.585,1.963c0.271,0.054,0.54,0.071,0.757,0.071c0.144,0,0.233,0.019,0.233,0.145
			c0,0.144-0.162,0.18-0.828,0.18c-0.648,0-1.963,0-3.403-0.036c-0.324-0.018-0.54-0.018-0.54-0.144
			c0-0.108,0.072-0.145,0.252-0.162c0.126-0.036,0.253-0.198,0.162-0.414l-1.44-3.817c-0.035-0.09-0.09-0.126-0.18-0.126H105.857z
			 M109.531-145.687c0.09,0,0.107-0.054,0.09-0.107L108-150.241c-0.018-0.072-0.035-0.162-0.09-0.162
			c-0.054,0-0.09,0.09-0.107,0.162l-1.657,4.429c-0.018,0.072,0,0.126,0.072,0.126H109.531z"/>
		<path fill="#95CBEE" d="M120.348-145.309c0,2.305,0,3.548,0.379,3.871c0.306,0.271,0.773,0.396,2.178,0.396
			c0.955,0,1.657-0.018,2.107-0.504c0.216-0.234,0.432-0.738,0.468-1.08c0.019-0.162,0.054-0.271,0.198-0.271
			c0.126,0,0.145,0.09,0.145,0.306c0,0.198-0.127,1.549-0.271,2.071c-0.108,0.396-0.198,0.486-1.134,0.486
			c-1.297,0-2.233-0.036-3.043-0.055c-0.811-0.036-1.459-0.054-2.197-0.054c-0.198,0-0.594,0-1.026,0.018
			c-0.414,0-0.882,0.036-1.242,0.036c-0.234,0-0.36-0.054-0.36-0.18c0-0.09,0.072-0.145,0.288-0.145
			c0.271,0,0.486-0.035,0.648-0.071c0.36-0.072,0.45-0.469,0.522-0.99c0.09-0.757,0.09-2.179,0.09-3.836v-3.169
			c0-2.736,0-3.24-0.036-3.816c-0.036-0.612-0.181-0.9-0.774-1.026c-0.145-0.036-0.359-0.055-0.594-0.055
			c-0.198,0-0.307-0.035-0.307-0.162c0-0.126,0.126-0.161,0.396-0.161c0.846,0,1.98,0.054,2.467,0.054
			c0.432,0,1.746-0.054,2.448-0.054c0.253,0,0.378,0.035,0.378,0.161c0,0.127-0.107,0.162-0.324,0.162
			c-0.197,0-0.485,0.019-0.701,0.055c-0.486,0.09-0.631,0.396-0.666,1.026c-0.037,0.576-0.037,1.08-0.037,3.816V-145.309z"/>
		<path fill="#95CBEE" d="M130.428-144.786c-0.09,0-0.126,0.036-0.162,0.145l-0.973,2.574c-0.18,0.45-0.27,0.883-0.27,1.099
			c0,0.324,0.162,0.558,0.721,0.558h0.27c0.217,0,0.271,0.036,0.271,0.145c0,0.144-0.108,0.18-0.306,0.18
			c-0.576,0-1.352-0.054-1.909-0.054c-0.198,0-1.188,0.054-2.124,0.054c-0.234,0-0.343-0.036-0.343-0.18
			c0-0.108,0.072-0.145,0.216-0.145c0.162,0,0.414-0.018,0.559-0.035c0.828-0.108,1.17-0.721,1.53-1.621l4.52-11.308
			c0.216-0.521,0.323-0.72,0.504-0.72c0.162,0,0.271,0.162,0.45,0.576c0.432,0.99,3.312,8.337,4.465,11.073
			c0.685,1.62,1.207,1.873,1.585,1.963c0.271,0.054,0.54,0.071,0.757,0.071c0.144,0,0.233,0.019,0.233,0.145
			c0,0.144-0.162,0.18-0.828,0.18c-0.648,0-1.963,0-3.403-0.036c-0.324-0.018-0.54-0.018-0.54-0.144
			c0-0.108,0.072-0.145,0.252-0.162c0.126-0.036,0.253-0.198,0.162-0.414l-1.44-3.817c-0.035-0.09-0.09-0.126-0.18-0.126H130.428z
			 M134.102-145.687c0.09,0,0.107-0.054,0.09-0.107l-1.621-4.447c-0.018-0.072-0.035-0.162-0.09-0.162
			c-0.054,0-0.09,0.09-0.107,0.162l-1.657,4.429c-0.018,0.072,0,0.126,0.072,0.126H134.102z"/>
		<path fill="#95CBEE" d="M151.904-147.973c0.054,0,0.107-0.036,0.107-0.126v-0.379c0-2.736,0-3.24-0.036-3.816
			c-0.035-0.612-0.18-0.9-0.773-1.026c-0.145-0.036-0.45-0.055-0.702-0.055c-0.198,0-0.307-0.035-0.307-0.162
			c0-0.126,0.126-0.161,0.379-0.161c0.972,0,2.105,0.054,2.592,0.054c0.433,0,1.566-0.054,2.269-0.054
			c0.253,0,0.379,0.035,0.379,0.161c0,0.127-0.108,0.162-0.324,0.162c-0.145,0-0.307,0.019-0.522,0.055
			c-0.486,0.09-0.63,0.396-0.666,1.026c-0.036,0.576-0.036,1.08-0.036,3.816v3.169c0,1.657,0,3.079,0.09,3.854
			c0.054,0.504,0.162,0.9,0.702,0.973c0.252,0.036,0.648,0.071,0.919,0.071c0.197,0,0.288,0.055,0.288,0.145
			c0,0.126-0.145,0.18-0.36,0.18c-1.171,0-2.305-0.054-2.809-0.054c-0.415,0-1.549,0.054-2.251,0.054
			c-0.252,0-0.379-0.054-0.379-0.18c0-0.09,0.072-0.145,0.289-0.145c0.27,0,0.486-0.035,0.647-0.071
			c0.36-0.072,0.45-0.469,0.522-0.99c0.09-0.757,0.09-2.179,0.09-3.836v-1.584c0-0.072-0.054-0.108-0.107-0.108h-6.879
			c-0.054,0-0.107,0.019-0.107,0.108v1.584c0,1.657,0,3.079,0.09,3.854c0.055,0.504,0.162,0.9,0.702,0.973
			c0.253,0.036,0.648,0.071,0.919,0.071c0.197,0,0.287,0.055,0.287,0.145c0,0.126-0.144,0.18-0.359,0.18
			c-1.17,0-2.305-0.054-2.809-0.054c-0.414,0-1.549,0.054-2.27,0.054c-0.234,0-0.359-0.054-0.359-0.18
			c0-0.09,0.072-0.145,0.287-0.145c0.271,0,0.486-0.035,0.648-0.071c0.36-0.072,0.451-0.469,0.522-0.99
			c0.09-0.757,0.09-2.179,0.09-3.836v-3.169c0-2.736,0-3.24-0.036-3.816c-0.035-0.612-0.18-0.9-0.773-1.026
			c-0.145-0.036-0.451-0.055-0.703-0.055c-0.197,0-0.306-0.035-0.306-0.162c0-0.126,0.126-0.161,0.378-0.161
			c0.973,0,2.107,0.054,2.593,0.054c0.433,0,1.567-0.054,2.269-0.054c0.252,0,0.379,0.035,0.379,0.161
			c0,0.127-0.108,0.162-0.324,0.162c-0.145,0-0.307,0.019-0.522,0.055c-0.486,0.09-0.63,0.396-0.666,1.026
			c-0.036,0.576-0.036,1.08-0.036,3.816v0.379c0,0.09,0.054,0.126,0.107,0.126H151.904z"/>
		<path fill="#95CBEE" d="M165.509-148.478c0-2.736,0-3.24-0.036-3.816c-0.036-0.612-0.18-0.9-0.774-1.026
			c-0.144-0.036-0.45-0.055-0.702-0.055c-0.198,0-0.306-0.035-0.306-0.162c0-0.126,0.126-0.161,0.396-0.161
			c0.955,0,2.089,0.054,2.629,0.054c0.433,0,1.566-0.054,2.215-0.054c0.271,0,0.396,0.035,0.396,0.161
			c0,0.127-0.108,0.162-0.288,0.162c-0.198,0-0.307,0.019-0.522,0.055c-0.486,0.09-0.63,0.396-0.666,1.026
			c-0.036,0.576-0.036,1.08-0.036,3.816v2.521c0,2.61,0.522,3.709,1.404,4.429c0.811,0.666,1.639,0.738,2.251,0.738
			c0.792,0,1.765-0.252,2.484-0.972c0.99-0.99,1.045-2.611,1.045-4.466v-2.251c0-2.736,0-3.24-0.036-3.816
			c-0.036-0.612-0.181-0.9-0.774-1.026c-0.145-0.036-0.45-0.055-0.648-0.055s-0.306-0.035-0.306-0.162
			c0-0.126,0.126-0.161,0.378-0.161c0.918,0,2.053,0.054,2.07,0.054c0.216,0,1.351-0.054,2.053-0.054
			c0.252,0,0.378,0.035,0.378,0.161c0,0.127-0.107,0.162-0.324,0.162c-0.198,0-0.306,0.019-0.521,0.055
			c-0.486,0.09-0.631,0.396-0.667,1.026c-0.035,0.576-0.035,1.08-0.035,3.816v1.927c0,1.999-0.198,4.123-1.711,5.42
			c-1.278,1.099-2.575,1.296-3.745,1.296c-0.954,0-2.683-0.054-3.997-1.242c-0.918-0.828-1.603-2.16-1.603-4.771V-148.478z"/>
		<path fill="#95CBEE" d="M182.986-142.535c0.036,1.404,0.271,1.872,0.631,1.998c0.306,0.108,0.647,0.126,0.936,0.126
			c0.198,0,0.307,0.036,0.307,0.145c0,0.144-0.162,0.18-0.414,0.18c-1.171,0-1.891-0.054-2.233-0.054
			c-0.161,0-1.008,0.054-1.944,0.054c-0.234,0-0.396-0.018-0.396-0.18c0-0.108,0.107-0.145,0.288-0.145
			c0.233,0,0.558-0.018,0.81-0.09c0.469-0.144,0.54-0.666,0.559-2.232l0.162-10.659c0-0.36,0.054-0.612,0.233-0.612
			c0.198,0,0.36,0.234,0.667,0.559c0.216,0.233,2.952,3.169,5.581,5.779c1.225,1.225,3.655,3.817,3.961,4.105h0.091l-0.181-8.085
			c-0.018-1.098-0.18-1.44-0.612-1.62c-0.27-0.108-0.702-0.108-0.954-0.108c-0.216,0-0.288-0.054-0.288-0.162
			c0-0.144,0.198-0.161,0.469-0.161c0.936,0,1.8,0.054,2.179,0.054c0.197,0,0.882-0.054,1.764-0.054
			c0.234,0,0.414,0.018,0.414,0.161c0,0.108-0.107,0.162-0.323,0.162c-0.181,0-0.324,0-0.54,0.055
			c-0.505,0.144-0.648,0.521-0.667,1.53l-0.198,11.361c0,0.396-0.071,0.559-0.233,0.559c-0.198,0-0.414-0.198-0.612-0.396
			c-1.135-1.08-3.439-3.439-5.312-5.294c-1.963-1.944-3.961-4.195-4.285-4.537h-0.055L182.986-142.535z"/>
		<path fill="#95CBEE" d="M199.385-148.478c0-2.736,0-3.24-0.036-3.816c-0.036-0.612-0.216-0.919-0.612-1.009
			c-0.198-0.054-0.432-0.072-0.648-0.072c-0.18,0-0.288-0.035-0.288-0.18c0-0.108,0.145-0.144,0.433-0.144
			c0.684,0,1.818,0.054,2.341,0.054c0.45,0,1.512-0.054,2.196-0.054c0.234,0,0.378,0.035,0.378,0.144c0,0.145-0.107,0.18-0.288,0.18
			c-0.18,0-0.324,0.019-0.54,0.055c-0.486,0.09-0.63,0.396-0.666,1.026c-0.036,0.576-0.036,1.08-0.036,3.816v3.169
			c0,1.747,0,3.169,0.072,3.943c0.054,0.486,0.18,0.811,0.72,0.883c0.252,0.036,0.648,0.071,0.919,0.071
			c0.197,0,0.288,0.055,0.288,0.145c0,0.126-0.145,0.18-0.343,0.18c-1.188,0-2.322-0.054-2.809-0.054
			c-0.414,0-1.549,0.054-2.269,0.054c-0.234,0-0.36-0.054-0.36-0.18c0-0.09,0.072-0.145,0.288-0.145
			c0.271,0,0.486-0.035,0.648-0.071c0.36-0.072,0.468-0.379,0.522-0.9c0.09-0.757,0.09-2.179,0.09-3.926V-148.478z"/>
		<path fill="#95CBEE" d="M206.225-151.935c-0.415-0.99-0.721-1.188-1.369-1.368c-0.27-0.072-0.558-0.072-0.702-0.072
			c-0.162,0-0.216-0.054-0.216-0.162c0-0.144,0.198-0.161,0.468-0.161c0.954,0,1.98,0.054,2.611,0.054
			c0.45,0,1.314-0.054,2.215-0.054c0.216,0,0.414,0.035,0.414,0.161c0,0.127-0.108,0.162-0.271,0.162
			c-0.288,0-0.559,0.019-0.702,0.127c-0.126,0.09-0.18,0.216-0.18,0.378c0,0.233,0.162,0.738,0.414,1.386l3.097,8.175h0.072
			c0.773-1.98,3.114-7.778,3.547-8.967c0.09-0.234,0.162-0.504,0.162-0.666c0-0.145-0.072-0.288-0.234-0.342
			c-0.216-0.072-0.486-0.091-0.72-0.091c-0.162,0-0.307-0.018-0.307-0.144c0-0.145,0.162-0.18,0.504-0.18
			c0.9,0,1.657,0.054,1.891,0.054c0.307,0,1.152-0.054,1.692-0.054c0.234,0,0.379,0.035,0.379,0.161
			c0,0.127-0.108,0.162-0.288,0.162c-0.181,0-0.559,0-0.883,0.217c-0.233,0.162-0.504,0.468-0.99,1.62
			c-0.702,1.692-1.188,2.665-2.16,4.88c-1.152,2.629-1.999,4.591-2.396,5.491c-0.468,1.044-0.576,1.332-0.828,1.332
			c-0.233,0-0.342-0.252-0.684-1.098L206.225-151.935z"/>
		<path fill="#95CBEE" d="M221.272-148.478c0-2.736,0-3.24-0.036-3.816c-0.036-0.612-0.18-0.9-0.774-1.026
			c-0.144-0.036-0.45-0.055-0.702-0.055c-0.198,0-0.306-0.035-0.306-0.162c0-0.126,0.126-0.161,0.396-0.161
			c0.486,0,1.009,0.018,1.459,0.018c0.468,0.018,0.882,0.036,1.134,0.036c0.576,0,4.159,0,4.502-0.019
			c0.342-0.035,0.63-0.071,0.773-0.107c0.091-0.019,0.198-0.072,0.288-0.072c0.091,0,0.108,0.072,0.108,0.162
			c0,0.126-0.09,0.342-0.144,1.17c-0.019,0.181-0.055,0.973-0.091,1.188c-0.018,0.09-0.054,0.198-0.18,0.198
			s-0.162-0.09-0.162-0.252c0-0.126-0.018-0.433-0.108-0.648c-0.126-0.324-0.306-0.54-1.206-0.647
			c-0.306-0.036-2.196-0.072-2.557-0.072c-0.09,0-0.126,0.054-0.126,0.18v4.556c0,0.126,0.018,0.198,0.126,0.198
			c0.396,0,2.467,0,2.881-0.036c0.432-0.036,0.702-0.09,0.864-0.271c0.126-0.144,0.198-0.234,0.288-0.234
			c0.072,0,0.126,0.036,0.126,0.145s-0.072,0.396-0.145,1.314c-0.018,0.36-0.071,1.08-0.071,1.206c0,0.145,0,0.343-0.162,0.343
			c-0.126,0-0.162-0.072-0.162-0.162c-0.019-0.181-0.019-0.414-0.072-0.648c-0.09-0.36-0.342-0.63-1.008-0.702
			c-0.343-0.036-2.125-0.054-2.558-0.054c-0.09,0-0.107,0.071-0.107,0.18v1.422c0,0.612-0.019,2.27,0,2.791
			c0.036,1.242,0.324,1.513,2.16,1.513c0.469,0,1.225,0,1.693-0.216c0.468-0.217,0.684-0.595,0.81-1.333
			c0.036-0.197,0.072-0.27,0.198-0.27c0.145,0,0.145,0.144,0.145,0.324c0,0.414-0.145,1.638-0.234,1.998
			c-0.126,0.469-0.288,0.469-0.973,0.469c-1.351,0-2.341-0.036-3.115-0.055c-0.773-0.036-1.332-0.054-1.872-0.054
			c-0.198,0-0.594,0-1.026,0.018c-0.414,0-0.882,0.036-1.242,0.036c-0.234,0-0.36-0.054-0.36-0.18c0-0.09,0.072-0.145,0.288-0.145
			c0.271,0,0.486-0.035,0.648-0.071c0.36-0.072,0.45-0.469,0.522-0.99c0.09-0.757,0.09-2.179,0.09-3.836V-148.478z"/>
		<path fill="#95CBEE" d="M233.009-148.478c0-2.736,0-3.24-0.036-3.816c-0.036-0.612-0.18-0.9-0.774-1.026
			c-0.144-0.036-0.45-0.055-0.702-0.055c-0.198,0-0.306-0.035-0.306-0.162c0-0.126,0.126-0.161,0.396-0.161
			c0.954,0,2.089,0.054,2.467,0.054c0.612,0,1.98-0.054,2.539-0.054c1.134,0,2.341,0.107,3.312,0.773
			c0.505,0.343,1.225,1.261,1.225,2.467c0,1.333-0.559,2.557-2.377,4.033c1.603,2.017,2.845,3.619,3.907,4.735
			c1.009,1.045,1.747,1.171,2.017,1.225c0.198,0.036,0.36,0.054,0.504,0.054c0.145,0,0.217,0.055,0.217,0.145
			c0,0.144-0.126,0.18-0.343,0.18h-1.71c-1.009,0-1.459-0.09-1.927-0.342c-0.774-0.414-1.458-1.261-2.467-2.646
			c-0.72-0.99-1.548-2.215-1.782-2.485c-0.09-0.107-0.198-0.126-0.324-0.126l-1.566-0.036c-0.09,0-0.145,0.036-0.145,0.145v0.252
			c0,1.675,0,3.097,0.091,3.854c0.054,0.521,0.161,0.918,0.702,0.99c0.27,0.036,0.666,0.071,0.882,0.071
			c0.145,0,0.216,0.055,0.216,0.145c0,0.126-0.126,0.18-0.359,0.18c-1.045,0-2.377-0.054-2.647-0.054
			c-0.342,0-1.477,0.054-2.196,0.054c-0.234,0-0.36-0.054-0.36-0.18c0-0.09,0.072-0.145,0.288-0.145
			c0.271,0,0.486-0.035,0.648-0.071c0.36-0.072,0.45-0.469,0.522-0.99c0.09-0.757,0.09-2.179,0.09-3.836V-148.478z M235.133-147.055
			c0,0.198,0.036,0.271,0.162,0.324c0.379,0.126,0.919,0.18,1.369,0.18c0.72,0,0.954-0.072,1.278-0.306
			c0.54-0.396,1.062-1.225,1.062-2.701c0-2.557-1.692-3.295-2.754-3.295c-0.45,0-0.774,0.019-0.955,0.072
			c-0.126,0.036-0.162,0.108-0.162,0.252V-147.055z"/>
		<path fill="#95CBEE" d="M245.698-140.303c-0.288-0.126-0.343-0.216-0.343-0.612c0-0.99,0.072-2.07,0.091-2.358
			c0.018-0.271,0.071-0.469,0.216-0.469c0.162,0,0.18,0.162,0.18,0.307c0,0.234,0.072,0.612,0.162,0.918
			c0.396,1.333,1.459,1.818,2.575,1.818c1.62,0,2.412-1.098,2.412-2.052c0-0.883-0.27-1.711-1.765-2.881l-0.828-0.648
			c-1.98-1.549-2.664-2.809-2.664-4.268c0-1.98,1.656-3.403,4.159-3.403c1.17,0,1.926,0.181,2.395,0.307
			c0.162,0.036,0.252,0.09,0.252,0.216c0,0.234-0.072,0.757-0.072,2.161c0,0.396-0.054,0.54-0.198,0.54
			c-0.126,0-0.18-0.108-0.18-0.324c0-0.162-0.09-0.721-0.468-1.188c-0.271-0.342-0.793-0.882-1.963-0.882
			c-1.332,0-2.143,0.773-2.143,1.854c0,0.828,0.414,1.458,1.908,2.593l0.505,0.378c2.178,1.639,2.952,2.881,2.952,4.591
			c0,1.045-0.396,2.287-1.692,3.134c-0.9,0.576-1.908,0.737-2.862,0.737C247.282-139.835,246.473-139.961,245.698-140.303z"/>
		<path fill="#95CBEE" d="M257.523-148.478c0-2.736,0-3.24-0.036-3.816c-0.036-0.612-0.216-0.919-0.612-1.009
			c-0.198-0.054-0.432-0.072-0.648-0.072c-0.18,0-0.288-0.035-0.288-0.18c0-0.108,0.145-0.144,0.433-0.144
			c0.684,0,1.818,0.054,2.341,0.054c0.45,0,1.512-0.054,2.196-0.054c0.234,0,0.378,0.035,0.378,0.144c0,0.145-0.107,0.18-0.288,0.18
			c-0.18,0-0.324,0.019-0.54,0.055c-0.486,0.09-0.63,0.396-0.666,1.026c-0.036,0.576-0.036,1.08-0.036,3.816v3.169
			c0,1.747,0,3.169,0.072,3.943c0.054,0.486,0.18,0.811,0.72,0.883c0.252,0.036,0.648,0.071,0.919,0.071
			c0.197,0,0.288,0.055,0.288,0.145c0,0.126-0.145,0.18-0.343,0.18c-1.188,0-2.322-0.054-2.809-0.054
			c-0.414,0-1.549,0.054-2.269,0.054c-0.234,0-0.36-0.054-0.36-0.18c0-0.09,0.072-0.145,0.288-0.145
			c0.271,0,0.486-0.035,0.648-0.071c0.36-0.072,0.468-0.379,0.522-0.9c0.09-0.757,0.09-2.179,0.09-3.926V-148.478z"/>
		<path fill="#95CBEE" d="M268.414-152.691l-2.683,0.072c-1.045,0.036-1.477,0.126-1.747,0.522c-0.18,0.27-0.27,0.485-0.306,0.63
			c-0.036,0.144-0.09,0.216-0.198,0.216c-0.126,0-0.162-0.09-0.162-0.288c0-0.288,0.342-1.927,0.378-2.07
			c0.055-0.234,0.108-0.343,0.217-0.343c0.144,0,0.323,0.181,0.773,0.217c0.522,0.054,1.207,0.09,1.801,0.09h7.13
			c0.576,0,0.973-0.054,1.243-0.09c0.27-0.055,0.414-0.09,0.485-0.09c0.126,0,0.145,0.107,0.145,0.378
			c0,0.378-0.054,1.62-0.054,2.088c-0.019,0.181-0.055,0.288-0.162,0.288c-0.145,0-0.181-0.09-0.198-0.359l-0.019-0.198
			c-0.036-0.468-0.521-0.973-2.124-1.009l-2.269-0.054v7.382c0,1.657,0,3.079,0.09,3.854c0.054,0.504,0.162,0.9,0.702,0.973
			c0.252,0.036,0.648,0.071,0.918,0.071c0.198,0,0.288,0.055,0.288,0.145c0,0.126-0.144,0.18-0.342,0.18
			c-1.188,0-2.323-0.054-2.827-0.054c-0.414,0-1.548,0.054-2.269,0.054c-0.234,0-0.36-0.054-0.36-0.18
			c0-0.09,0.072-0.145,0.288-0.145c0.271,0,0.486-0.035,0.648-0.071c0.36-0.072,0.468-0.469,0.522-0.99
			c0.09-0.757,0.09-2.179,0.09-3.836V-152.691z"/>
		<path fill="#95CBEE" d="M281.267-144.75c0-0.973-0.181-1.368-0.414-1.891c-0.126-0.288-2.539-4.249-3.169-5.186
			c-0.45-0.666-0.9-1.116-1.242-1.314c-0.234-0.126-0.541-0.234-0.757-0.234c-0.144,0-0.27-0.035-0.27-0.162
			c0-0.107,0.126-0.161,0.342-0.161c0.324,0,1.675,0.054,2.269,0.054c0.378,0,1.116-0.054,1.927-0.054c0.18,0,0.27,0.054,0.27,0.161
			c0,0.108-0.126,0.127-0.396,0.198c-0.162,0.036-0.252,0.181-0.252,0.324c0,0.145,0.09,0.36,0.216,0.612
			c0.252,0.54,2.772,4.88,3.061,5.384c0.181-0.433,2.449-4.394,2.701-4.951c0.18-0.396,0.252-0.702,0.252-0.937
			c0-0.181-0.072-0.378-0.378-0.45c-0.162-0.036-0.324-0.072-0.324-0.181c0-0.126,0.09-0.161,0.306-0.161
			c0.595,0,1.171,0.054,1.692,0.054c0.396,0,1.585-0.054,1.927-0.054c0.198,0,0.324,0.035,0.324,0.144
			c0,0.126-0.144,0.18-0.342,0.18c-0.181,0-0.522,0.072-0.792,0.217c-0.379,0.18-0.576,0.396-0.973,0.882
			c-0.594,0.721-3.115,4.951-3.439,5.726c-0.27,0.648-0.27,1.207-0.27,1.801v1.477c0,0.288,0,1.044,0.054,1.801
			c0.036,0.521,0.198,0.918,0.738,0.99c0.252,0.036,0.648,0.071,0.9,0.071c0.198,0,0.288,0.055,0.288,0.145
			c0,0.126-0.145,0.18-0.378,0.18c-1.135,0-2.269-0.054-2.755-0.054c-0.45,0-1.585,0.054-2.251,0.054
			c-0.252,0-0.396-0.036-0.396-0.18c0-0.09,0.09-0.145,0.288-0.145c0.252,0,0.468-0.035,0.63-0.071
			c0.36-0.072,0.522-0.469,0.558-0.99c0.055-0.757,0.055-1.513,0.055-1.801V-144.75z"/>
	</g>
</g>
</svg>
